# xmcd
#
# Track frame offsets: 
#        150
#        23378
#        53608
#        74275
#        95255
#        117390
#        141383
#        157285
#
# Disc length: 2337 seconds
#
# Revision: 4
# Processed by: cddbd v1.5.2PL0 Copyright (c) Steve Scherf et al.
# Submitted via: ExactAudioCopy v1.0b1
#
DISCID=68091f08
DTITLE=Yanni - Keys to Imagination
DYEAR=1986
DGENRE=New Age
TTITLE0=The North Shore of Matsushima
TTITLE1=Looking Glass
TTITLE2=Nostalgia
TTITLE3=Santorini
TTITLE4=Port of Mystery
TTITLE5=Keys to Imagination
TTITLE6=Forgotten Yesterdays
TTITLE7=Forbidden Dream
EXTD=YEAR: 1986
EXTT0=
EXTT1=
EXTT2=
EXTT3=
EXTT4=
EXTT5=
EXTT6=
EXTT7=
PLAYORDER=
